<?xml version="1.0" encoding="utf-8"?>
<!-- Generator: Adobe Illustrator 27.0.0, SVG Export Plug-In . SVG Version: 6.00 Build 0)  -->
<svg version="1.1" id="_圖層_1" xmlns="http://www.w3.org/2000/svg" xmlns:xlink="http://www.w3.org/1999/xlink" x="0px" y="0px"
	 viewBox="0 0 792 360" style="enable-background:new 0 0 792 360;" xml:space="preserve">
<style type="text/css">
	.st0{fill:none;}
</style>
<path d="M732,0v273c0,14.91-12.09,27-27,27l0,0c-14.91,0-27-12.09-27-27v-98.59c0-16.57-13.43-30-30-30l0,0c-16.57,0-30,13.43-30,30
	V273c0,14.91-12.09,27-27,27l0,0c-14.91,0-27-12.09-27-27V0h-60v360h288V0H732z"/>
<path d="M288,144V0H0v360h288V215h-60v58c0,14.91-12.09,27-27,27l0,0c-14.91,0-27-12.09-27-27v-98.59c0-16.57-13.43-30-30-30l0,0
	c-16.57,0-30,13.43-30,30V273c0,14.91-12.09,27-27,27l0,0c-14.91,0-27-12.09-27-27V87c0-14.91,12.09-27,27-27h114
	c14.91,0,27,12.09,27,27v57H288z"/>
<path class="st0" d="M434.82,252c-22.42-19.79-36.57-48.74-36.57-81c0-9.26,1.17-18.24,3.36-26.82c-1.85-0.12-3.72-0.18-5.61-0.18
	l0,0c-1.88,0-3.75,0.07-5.61,0.18c2.19,8.57,3.36,17.56,3.36,26.82c0,32.26-14.15,61.21-36.57,81c22.42,19.79,36.57,48.74,36.57,81
	c0,9.26-1.17,18.24-3.36,26.82c1.85,0.12,3.72,0.18,5.61,0.18l0,0c1.88,0,3.75-0.07,5.61-0.18c-2.19-8.57-3.36-17.56-3.36-26.82
	C398.25,300.74,412.4,271.79,434.82,252z"/>
<g>
	<path d="M357.18,252c22.42-19.79,36.57-48.74,36.57-81c0-9.26-1.17-18.24-3.36-26.82C344.96,147.08,309,184.84,309,231v42
		c0,46.16,35.96,83.92,81.39,86.82c2.19-8.57,3.36-17.56,3.36-26.82C393.75,300.74,379.6,271.79,357.18,252z"/>
	<path d="M483,273v-42c0-46.16-35.96-83.92-81.39-86.82c-2.19,8.57-3.36,17.56-3.36,26.82c0,32.26,14.15,61.21,36.57,81
		c-22.42,19.79-36.57,48.74-36.57,81c0,9.26,1.17,18.24,3.36,26.82C447.04,356.92,483,319.16,483,273z"/>
</g>
</svg>
